<svg width="1141" height="332" viewBox="0 0 1141 332" fill="none" xmlns="http://www.w3.org/2000/svg">
<path d="M1084.89 227.576C1084.89 246.648 1069.43 262.11 1050.36 262.11H978.46C950.452 262.11 936.581 245.838 936.581 222.899C936.581 199.425 950.452 183.421 978.46 183.421H1015.14C1022.28 183.421 1028.07 189.213 1028.07 196.358C1028.07 203.503 1022.28 209.295 1015.14 209.295H988.596C981.927 209.295 978.726 212.496 978.726 218.631C978.726 224.499 981.927 227.967 988.062 227.967H1032.51C1037.28 227.967 1041.14 224.101 1041.14 219.333V189.556C1041.14 174.618 1033.41 166.883 1017.94 166.883H962.722C952.262 166.883 943.783 158.404 943.783 147.944C943.783 137.485 952.262 129.005 962.722 129.005H1018.47C1062.48 129.005 1084.89 151.945 1084.89 192.49V227.576ZM1062.21 76.9878C1064.72 75.0026 1068.89 76.6497 1068.89 79.8465V102.247C1068.89 102.994 1068.65 103.726 1068.18 104.305C1060.91 113.187 1049.4 115.935 1040.88 115.935C1020.07 115.935 1004.33 99.1304 984.861 99.1304C975.97 99.1304 968.017 103.022 961.86 107.854C959.362 109.815 955.253 108.16 955.253 104.985V82.5209C955.253 81.7058 955.536 80.9117 956.086 80.3096C963.281 72.426 973.775 68.7218 983.528 68.7218C1004.33 68.7218 1020.07 85.5265 1039.54 85.5265C1048.15 85.5265 1055.94 81.9584 1062.21 76.9878Z" fill="#2652A4"/>
<path d="M915.331 239.837C915.331 252.138 905.359 262.11 893.058 262.11C880.757 262.11 870.786 252.138 870.786 239.837V192.223C870.786 177.019 863.05 169.55 847.579 169.55H811.666C806.898 169.55 803.033 173.416 803.033 178.184V239.703C803.033 252.078 793.001 262.11 780.627 262.11C768.252 262.11 758.22 252.078 758.22 239.703V163.539C758.22 144.467 773.682 129.005 792.754 129.005H848.646C892.392 129.005 915.331 152.212 915.331 192.49V239.837Z" fill="#2652A4"/>
<path d="M732.186 227.576C732.186 246.648 716.725 262.11 697.652 262.11H625.756C597.748 262.11 583.878 245.838 583.878 222.899C583.878 199.425 597.748 183.421 625.756 183.421H662.433C669.578 183.421 675.37 189.213 675.37 196.358C675.37 203.503 669.578 209.295 662.433 209.295H635.892C629.224 209.295 626.023 212.496 626.023 218.631C626.023 224.499 629.224 227.967 635.359 227.967H679.807C684.575 227.967 688.44 224.101 688.44 219.333V189.556C688.44 174.618 680.705 166.883 665.234 166.883H610.018C599.559 166.883 591.08 158.404 591.08 147.944C591.08 137.485 599.559 129.005 610.018 129.005H665.767C709.78 129.005 732.186 151.945 732.186 192.49V227.576Z" fill="#2652A4"/>
<path d="M464.601 113.599C461.976 114.566 440.254 125.628 429.722 131.039L434.038 138.636L440.945 135.701V158.32C444.951 153.9 458.384 126.664 464.601 113.599Z" fill="#2652A4"/>
<path d="M427.995 229.805C403.545 219.168 395.015 192.566 393.807 180.594C389.663 216.647 412.57 238.783 424.542 245.345L433.175 248.971L444.916 253.46L479.105 254.323L525.034 229.805L552.834 166.09L525.034 162.982C521.857 196.825 499.077 218.178 488.083 224.625C478.241 230.783 452.445 240.441 427.995 229.805Z" fill="#FE831B"/>
<path fill-rule="evenodd" clip-rule="evenodd" d="M424.542 245.345C446.068 253.69 511.911 245.345 524.171 178.522C526.795 135.701 507.537 117.168 497.58 113.254L501.551 80.7923L509.667 76.3029L521.063 78.0296L532.459 84.073C545.236 97.0806 570.031 134.181 566.992 178.522C563.194 233.949 505.868 291.274 424.542 245.345ZM522.79 112.218C527.844 112.218 531.941 108.121 531.941 103.066C531.941 98.0122 527.844 93.915 522.79 93.915C517.735 93.915 513.638 98.0122 513.638 103.066C513.638 108.121 517.735 112.218 522.79 112.218Z" fill="#2652A4"/>
<path d="M434.038 138.636L429.722 131.039C403.476 145.405 400.138 170.752 401.749 181.63C403.879 195.559 416.599 223.796 450.442 225.315C484.285 226.835 502.587 200.739 507.249 187.328C516.401 168.508 506.041 132.593 504.659 113.081C504.487 105.599 504.659 89.3221 506.731 84.073C508.803 78.8239 524.862 81.8858 532.632 84.073C518.542 69.9833 508.343 68.0724 505.005 68.8782C480.486 74.5762 501.033 141.399 499.825 155.903C500.654 192.785 475.306 205.689 462.529 207.53C452.514 209.257 430.102 206.84 420.57 183.357C411.039 159.874 425.578 143.758 434.038 138.636Z" fill="#21A2D9"/>
<path d="M328.383 239.837C328.383 252.138 318.411 262.11 306.11 262.11C293.809 262.11 283.837 252.138 283.837 239.837V192.49C283.837 152.212 306.776 129.005 350.255 129.005H367.327C378.523 129.005 387.599 138.082 387.599 149.278C387.599 160.474 378.523 169.55 367.327 169.55H351.322C336.118 169.55 328.383 177.019 328.383 192.223V239.837Z" fill="#2652A4"/>
<path d="M251.37 229.29C259.505 244.04 248.835 262.11 231.99 262.11C223.858 262.11 216.381 257.65 212.517 250.494L206.832 239.967C205.325 237.175 202.408 235.435 199.235 235.435H153.9C139.911 235.435 130.962 220.533 137.536 208.185C140.756 202.137 147.049 198.358 153.9 198.358H170.286C176.796 198.358 180.964 191.426 177.91 185.675L162.662 156.964C159.416 150.852 150.659 150.852 147.412 156.963L97.8804 250.2C93.987 257.529 86.3659 262.11 78.067 262.11C60.9908 262.11 50.1742 243.792 58.4207 228.839L128.63 101.531C133.432 92.9952 140.367 88.7274 149.436 88.7274H160.106C169.175 88.7274 176.11 92.9952 180.912 101.531L251.37 229.29Z" fill="#2652A4"/>
<path d="M219.954 101.356C219.954 119.379 205.343 133.99 187.319 133.99C169.296 133.99 154.685 119.379 154.685 101.356C154.685 83.3326 169.296 68.7218 187.319 68.7218C205.343 68.7218 219.954 83.3326 219.954 101.356Z" fill="#FE831B"/>
<path d="M252.415 121.558C252.415 131.094 244.685 138.825 235.148 138.825C225.612 138.825 217.882 131.094 217.882 121.558C217.882 112.022 225.612 104.291 235.148 104.291C244.685 104.291 252.415 112.022 252.415 121.558Z" fill="#FE831B"/>
<path d="M245.854 104.291C249.478 104.291 252.415 101.354 252.415 97.7299C252.415 94.1062 249.478 91.1686 245.854 91.1686C242.23 91.1686 239.292 94.1062 239.292 97.7299C239.292 101.354 242.23 104.291 245.854 104.291Z" fill="#FE831B"/>
</svg>
